<?xml version="1.0" encoding="utf-8"?>
<svg viewBox="0 0 500 500" xmlns="http://www.w3.org/2000/svg">
  <path opacity="1.000000" stroke="none" d="M 317.273 31.301 C 348.721 43.788 375.967 62.61 399.1 87.861 C 428.761 120.239 447.869 158.59 456.734 202.576 C 460.71 222.306 462.06 242.295 461.093 262.401 C 460.027 284.562 455.957 306.175 448.904 327.103 C 447.937 329.975 448.551 331.355 450.609 333.26 C 459.633 341.61 469.019 349.538 475.726 360.378 C 483.313 372.642 484.273 385.418 479.78 398.902 C 478.896 401.56 478.72 403.858 479.586 406.617 C 483.248 418.289 480.615 429.04 474.25 438.837 C 469.277 446.492 463.301 453.135 454.881 456.857 C 449.919 459.051 444.804 459.52 439.541 459.235 C 438.045 459.154 436.602 459.124 435.278 460.166 C 419.727 472.396 403.643 471.438 387.264 462.214 C 379.544 457.867 372.254 452.787 365.309 447.204 C 363.034 445.374 361.459 445.085 358.885 446.814 C 331.91 464.932 302.541 476.668 270.858 481.173 C 212.324 489.498 158.402 476.18 110.36 439.876 C 60.14 401.924 29.853 350.179 20.401 285.955 C 10.516 218.778 26.137 157.839 66.153 104.493 C 99.813 59.619 143.998 31.969 197.27 20.874 C 238.038 12.385 278.019 16.187 317.273 31.301 M 149.552 48.208 C 112.217 66.889 82.325 94.444 60.192 131.237 C 41.843 161.742 31.313 195.076 28.195 230.949 C 26.659 248.634 27.28 266.304 29.923 283.909 C 33.942 310.667 42.145 335.892 54.817 359.414 C 72.66 392.538 96.853 419.384 127.709 439.451 C 159.183 459.921 193.459 470.982 230.357 472.891 C 247.002 473.752 263.561 472.4 279.934 468.947 C 312.54 462.068 342.195 448.322 368.594 426.921 C 370.626 425.275 371.159 423.875 370.247 421.301 C 367.817 414.445 364.898 407.852 361.406 401.54 C 340.303 363.4 307.451 341.085 269.328 325.855 C 267.51 325.128 266.568 325.649 265.82 327.391 C 264.856 329.637 263.74 331.812 262.726 334.036 C 254.324 352.45 242.937 368.346 226.95 380.2 C 210.224 392.601 191.815 397.106 171.755 391.805 C 156.115 387.673 146.045 373.057 147.662 356.76 C 149.709 336.14 159.836 320.71 177.729 311.433 C 194.014 302.99 211.318 302.197 228.948 304.379 C 238.806 305.598 248.454 307.93 257.989 310.79 C 259.51 311.247 260.885 311.668 261.593 309.503 C 263.886 302.494 265.795 295.406 266.363 287.967 C 266.577 285.169 265.476 284.832 263.144 285.21 C 255.33 286.477 247.421 286.662 239.55 286.529 C 223.996 286.267 208.807 283.304 194.113 278.015 C 165.506 267.72 141.965 250.257 125.489 223.116 C 119.905 213.917 115.494 204.064 115.561 192.995 C 115.666 175.368 122.47 160.847 135.89 150.054 C 145.61 142.238 156.667 138.641 168.85 140.072 C 183.748 141.822 197.266 147.962 209.83 156.24 C 230.911 170.127 246.787 189.129 258.459 212.192 C 267.483 230.02 272.866 249.006 275.511 268.916 C 275.874 271.643 276.768 271.999 279.056 271.109 C 285.194 268.718 290.854 265.439 296.352 261.734 C 298.528 260.267 298.978 259.101 297.583 256.7 C 293.578 249.806 290.051 242.624 287.033 235.192 C 280.313 218.641 275.61 201.648 277.183 183.337 C 279.196 159.902 290.323 143.206 310.827 133.832 C 325.104 127.305 341.812 133.315 349.888 147.242 C 355.877 157.571 358.656 168.91 358.77 180.845 C 358.961 200.873 351.344 218.075 340.375 233.903 C 333.473 243.865 324.91 252.128 315.906 259.877 C 313.395 262.038 313.339 263.542 315.195 266.154 C 319.918 272.805 324.667 279.426 329.792 285.745 C 355.646 317.616 387.255 338.787 427.446 344.165 C 430.374 344.557 431.809 343.85 433.059 340.958 C 443.997 315.636 449.673 288.96 451.118 261.329 C 452.326 238.253 450.184 215.423 444.306 193.066 C 427.864 130.525 392.485 83.656 338.255 53.007 C 300.653 31.756 260.27 23.783 217.728 28.317 C 194.084 30.837 171.512 37.416 149.552 48.208 M 198.467 161.458 C 194.221 159.107 189.842 157.067 185.366 155.246 C 172.312 149.935 160.023 149.733 146.083 154.887 C 137.133 158.197 134.433 160.51 131.51 166.452 C 123.791 182.148 122.973 198.044 131.784 213.877 C 143.584 235.084 160.403 250.469 181.171 261.144 C 206.754 274.297 233.898 278.066 262.039 274.927 C 265.692 274.519 266.221 273.719 265.596 269.56 C 263.524 255.807 260.546 242.295 255.264 229.461 C 243.359 200.535 225.485 177.09 198.467 161.458 M 317.439 339.139 C 345.491 358.328 366.611 383.736 379.691 417.156 C 399.134 399.084 414.586 378.833 426.461 354.803 C 423.733 354.325 421.766 353.982 419.799 353.633 C 417.704 353.26 415.589 352.969 413.513 352.49 C 377.497 344.194 348.347 324.1 324.351 295.097 C 318.046 287.476 312.133 279.548 306.52 271.36 C 305.607 270.027 304.736 268.75 302.926 270.089 C 295.624 275.485 287.481 279.079 279.153 282.256 C 277.69 282.814 276.92 283.65 276.745 285.358 C 276.357 289.135 275.84 292.899 275.272 296.652 C 274.34 302.833 272.956 308.905 270.696 315.122 C 286.966 321.699 302.479 329.29 317.439 339.139 M 333.204 226.594 C 341.189 214.463 347.471 201.537 348.552 186.557 C 349.578 172.355 346.849 159.057 337.818 147.928 C 330.779 139.254 320.536 137.557 311.331 143.625 C 289.745 157.854 284.325 178.604 287.641 201.461 C 290.166 218.858 296.894 234.698 305.211 249.834 C 307.26 253.561 307.744 253.662 310.917 250.788 C 318.923 243.539 326.653 236 333.204 226.594 M 181.688 320.961 C 168.18 328.034 160.471 339.958 156.547 354.83 C 154.326 363.246 157.331 371.266 164.008 376.481 C 170.347 381.431 177.69 383.091 185.34 383.388 C 199.546 383.941 212.049 378.968 223.327 370.076 C 238.431 358.167 248.3 342.142 256.153 324.472 C 257.346 321.791 255.899 321.17 253.945 320.553 C 242.478 316.931 230.765 314.662 218.826 314.011 C 206.144 313.318 193.724 314.705 181.688 320.961 M 426.651 430.602 C 429.766 426.771 432.944 422.996 435.986 419.101 C 447.883 403.863 457.788 387.332 465.358 369.253 C 466.727 365.985 466.29 363.466 464.097 361.013 C 463.44 360.279 462.837 359.492 462.196 358.742 C 459.21 355.247 457.653 355.393 455.574 359.556 C 448.376 373.966 440.221 387.746 431.2 400.966 C 422.099 414.303 411.397 426.174 400.637 437.99 C 398.706 440.11 397.377 442.325 399.028 445.124 C 401.113 448.661 404.114 449.848 407.333 448.758 C 408.788 448.266 409.971 447.306 411.105 446.283 C 416.441 441.46 421.585 436.42 426.651 430.602 M 437.47 373.326 C 441.756 365.842 445.769 358.197 449.333 350.304 C 450.733 347.205 449.753 344.693 446.617 343.258 C 443.951 342.038 442.738 344.049 441.635 346.053 C 441.049 347.117 440.529 348.225 440.029 349.339 C 433.655 363.563 420.765 382.234 411.851 394.851 C 407.562 400.921 384.811 427.215 379.935 433.116 C 376.482 437.296 378.532 440.226 379.633 441.136 C 380.618 441.949 383.399 441.875 385.718 440.575 C 387.898 439.353 407.109 416.189 413.128 408.728 C 421.844 397.924 430.218 385.101 437.47 373.326 M 454.598 409.495 C 450.472 415.894 446.149 422.142 441.414 428.058 C 437.919 432.426 434.352 436.731 430.73 440.984 C 429.378 442.57 429.822 444.156 430.492 445.66 C 431.339 447.564 435.047 444.987 435.999 444.336 C 440.641 441.158 441.418 439.754 442.846 438.339 C 455.621 425.673 461.557 415.61 469.297 399.082 C 470.182 397.191 470.912 395.136 471.257 393.073 C 471.573 391.191 471.102 389.044 469.257 388.215 C 467.33 387.35 466.812 389.512 466.064 390.719 C 462.28 396.811 458.575 402.958 454.598 409.495" style="fill: rgb(255, 226, 79);"/>
</svg>